<?xml version="1.0" encoding="UTF-8" standalone="no"?>
<!-- Created with Inkscape (http://www.inkscape.org/) -->
<svg version="1.0" id="svg2" sodipodi:docname="Orange_lambda.svg" inkscape:version="1.1.1 (3bf5ae0d25, 2021-09-20)" preserveAspectRatio="x200Y200 meet" viewBox="0 0 300 300" xmlns:inkscape="http://www.inkscape.org/namespaces/inkscape" xmlns:sodipodi="http://sodipodi.sourceforge.net/DTD/sodipodi-0.dtd" xmlns="http://www.w3.org/2000/svg" xmlns:svg="http://www.w3.org/2000/svg">
  <sodipodi:namedview id="namedview11" pagecolor="#ffffff" bordercolor="#666666" borderopacity="1.0" inkscape:pageshadow="2" inkscape:pageopacity="0.0" inkscape:pagecheckerboard="0" showgrid="false" inkscape:zoom="1.5888444" inkscape:cx="156.40298" inkscape:cy="148.22093" inkscape:window-width="1920" inkscape:window-height="1017" inkscape:window-x="-8" inkscape:window-y="-8" inkscape:window-maximized="1" inkscape:current-layer="svg2" fit-margin-top="0" fit-margin-left="0" fit-margin-right="0" fit-margin-bottom="0"/>
  <defs id="defs4">
    <marker refX="0" refY="0" orient="auto" style="overflow:visible" id="Arrow1Mstart">
      <path d="M 0,0 5,-5 -12.5,0 5,5 Z" transform="matrix(0.4,0,0,0.4,4,0)" style="fill-rule:evenodd;stroke:#000000;stroke-width:1pt;marker-start:none" id="path3206"/>
    </marker>
    <marker refX="0" refY="0" orient="auto" style="overflow:visible" id="Arrow1Mend">
      <path d="M 0,0 5,-5 -12.5,0 5,5 Z" transform="matrix(-0.4,0,0,-0.4,-4,0)" style="fill-rule:evenodd;stroke:#000000;stroke-width:1pt;marker-start:none" id="path3209"/>
    </marker>
    <marker refX="0" refY="0" orient="auto" style="overflow:visible" id="Arrow1Lstart">
      <path d="M 0,0 5,-5 -12.5,0 5,5 Z" transform="matrix(0.8,0,0,0.8,10,0)" style="fill-rule:evenodd;stroke:#000000;stroke-width:1pt;marker-start:none" id="path3200"/>
    </marker>
  </defs>
  <path d="m 105.56671,67.848314 v 25.907581 h 21.33565 l 8.76286,27.050565 -65.149947,100.96337 h 32.003487 l 46.48125,-68.57889 30.47951,76.96076 48.00522,-15.23976 -7.61987,-23.62162 -22.09765,6.85789 -51.81516,-130.299896 z" style="fill:#fb7e14;fill-opacity:1;fill-rule:evenodd;stroke:none;stroke-width:1px;stroke-linecap:butt;stroke-linejoin:miter;stroke-opacity:1" id="path2255"/>
  <circle style="fill:none;stroke:#fb7e14;stroke-width:26.9341;stroke-linecap:round;stroke-miterlimit:4;stroke-dasharray:none;stroke-opacity:1" id="path880" cx="149.00002" cy="149.00002" r="135.53296"/>
</svg>